<svg width="37" height="40" viewBox="0 0 37 40" fill="none" xmlns="http://www.w3.org/2000/svg">
    <g clip-path="url(#clip0_1345_6040)">
        <path d="M19.1709 39.5727C9.97043 39.5727 2.82302 35.2029 0.517214 28.1688L0 26.5951L1.51221 25.88C1.67211 25.8029 5.63916 23.8332 5.39239 19.96C5.13181 15.8712 1.77574 13.9522 1.63261 13.8732L0.157936 13.0498L0.794588 11.4956C3.81207 4.29561 10.6831 0 19.1719 0C25.8436 0 31.691 2.57659 35.2109 7.06829L36.0993 8.2039L29.0851 17.5298L27.5196 16.0361C27.489 16.0078 24.1547 12.8976 20.2844 12.88C16.5552 12.8624 15.0855 14.2488 15.0243 14.3083L12.2614 11.6898C12.5141 11.4234 14.8821 9.05951 20.3011 9.09951C23.7539 9.11512 26.7369 10.7434 28.4968 11.9756L31.2478 8.31805C28.3952 5.42049 24.0777 3.78244 19.1729 3.78244C12.8389 3.78244 7.63698 6.67902 4.97188 11.6039C6.58279 12.9376 8.94685 15.5785 9.21336 19.722C9.49862 24.2 6.59564 27.0156 4.70737 28.36C6.9421 32.9776 12.3345 35.7873 19.1739 35.7873C23.9109 35.7873 28.7594 33.9678 31.7532 31.1551L28.6251 27.2868C26.9599 28.4507 24.1142 29.9629 20.3929 30.1541C15.1091 30.4224 11.9851 28.0234 11.8548 27.921L14.2306 24.9571C14.3037 25.0098 16.4259 26.5727 20.1936 26.3766C24.6532 26.1502 27.5137 23.3239 27.5403 23.2937L29.0535 21.7727L30.4068 23.4322L36.729 31.2556L35.7597 32.4371C32.2033 36.7717 25.6945 39.5727 19.1709 39.5727Z" fill="url(#paint0_linear_1345_6040)"/>
    </g>
    <defs>
        <linearGradient id="paint0_linear_1345_6040" x1="35.1368" y1="6.24488" x2="4.40701" y2="33.4637" gradientUnits="userSpaceOnUse">
            <stop offset="0.0733" stop-color="#F46881"/>
            <stop offset="0.083" stop-color="#F36682"/>
            <stop offset="0.2596" stop-color="#E74596"/>
            <stop offset="0.407" stop-color="#E031A2"/>
            <stop offset="0.5065" stop-color="#DD2AA6"/>
            <stop offset="0.8882" stop-color="#5210E2"/>
        </linearGradient>
        <clipPath id="clip0_1345_6040">
            <rect width="36.5217" height="40" fill="white"/>
        </clipPath>
    </defs>
</svg>
