<svg width="12" height="13" viewBox="0 0 12 13" fill="none" xmlns="http://www.w3.org/2000/svg">
    <path d="M0.718783 10.8252C0.387012 11.1791 0.380241 11.8075 0.725553 12.1758C1.07764 12.5442 1.6667 12.537 1.9917 12.1903L6.00003 7.91445L10.0016 12.1831C10.3401 12.5442 10.9224 12.5442 11.2677 12.1758C11.6131 11.8003 11.6131 11.1863 11.2745 10.8252L7.27295 6.55659L11.2745 2.28077C11.6131 1.91964 11.6198 1.29849 11.2677 0.930131C10.9224 0.561775 10.3401 0.561775 10.0016 0.922908L6.00003 5.19151L1.9917 0.922908C1.6667 0.568997 1.07087 0.554552 0.725553 0.930131C0.380241 1.29849 0.387012 1.93408 0.718783 2.28077L4.72035 6.55659L0.718783 10.8252Z" fill="#111111"/>
</svg>
