<svg width="1em" height="1em" viewBox="0 0 22 19" fill="none" xmlns="http://www.w3.org/2000/svg">
  <path
    d="M11 1.89383C10.0387 1.03749 8.73544 0.351471 7.30465 0.101521C5.60178 -0.195957 3.71875 0.128219 2.08272 1.50238C0.992468 2.41811 0.310446 3.85879 0.0844452 5.4156C-0.14346 6.98553 0.0784733 8.75175 0.890454 10.3885C1.47789 11.5727 2.87638 13.0623 4.3296 14.4335C5.81473 15.8349 7.4683 17.2133 8.6784 18.1876C10.0238 19.2708 11.9762 19.2708 13.3216 18.1876C14.5317 17.2133 16.1853 15.8349 17.6704 14.4335C19.1236 13.0623 20.5221 11.5727 21.1095 10.3886C21.9215 8.75177 22.1435 6.98555 21.9156 5.41562C21.6896 3.8588 21.0075 2.41813 19.9173 1.50239C18.2812 0.128235 16.3982 -0.195946 14.6954 0.101529C13.2646 0.351475 11.9613 1.03749 11 1.89383Z"
    fill="currentColor" />
</svg>