<svg width="1em" height="1em" viewBox="0 0 21 21" fill="none" xmlns="http://www.w3.org/2000/svg">
    <path d="M20.1664 6.16234L20.1664 6.23487C20.1664 7.09561 20.1664 7.52598 19.9592 7.8781C19.752 8.23021 19.3758 8.43922 18.6234 8.85724L17.8301 9.29799C18.3768 7.44984 18.5591 5.46414 18.6266 3.76597C18.6294 3.69316 18.6327 3.61945 18.636 3.54497L18.6383 3.49279C19.2896 3.71896 19.6552 3.88758 19.8834 4.20408C20.1665 4.59692 20.1665 5.11873 20.1664 6.16234Z" fill="currentColor"/>
    <path d="M0.166504 6.16234L0.166507 6.23487C0.16653 7.09561 0.166542 7.52598 0.373731 7.8781C0.580919 8.23021 0.957134 8.43922 1.70955 8.85724L2.50331 9.29823C1.95658 7.45001 1.77418 5.46422 1.70675 3.76597C1.70386 3.69316 1.70061 3.61945 1.69732 3.54497L1.69501 3.49266C1.04351 3.7189 0.67776 3.88752 0.4496 4.20408C0.166463 4.59692 0.166477 5.11873 0.166504 6.16234Z" fill="currentColor"/>
    <path fill-rule="evenodd" clip-rule="evenodd" d="M10.1667 0C11.9502 0 13.4196 0.157088 14.5436 0.346742C15.6824 0.538872 16.2517 0.634936 16.7274 1.22083C17.2032 1.80673 17.178 2.43998 17.1277 3.70647C16.9551 8.05446 16.0168 13.4853 10.9165 13.9657V17.5H12.3467C12.8234 17.5 13.2338 17.8365 13.3273 18.3039L13.5165 19.25H16.1665C16.5807 19.25 16.9165 19.5858 16.9165 20C16.9165 20.4142 16.5807 20.75 16.1665 20.75H4.1665C3.75229 20.75 3.4165 20.4142 3.4165 20C3.4165 19.5858 3.75229 19.25 4.1665 19.25H6.8165L7.00573 18.3039C7.09921 17.8365 7.50963 17.5 7.98631 17.5H9.4165V13.9657C4.31646 13.4851 3.37819 8.05437 3.20557 3.70647C3.15529 2.43998 3.13015 1.80673 3.60587 1.22083C4.08159 0.634936 4.65095 0.538871 5.78968 0.346742C6.91374 0.157088 8.38311 0 10.1667 0ZM11.1189 4.19887L11.0206 4.02251C10.6406 3.34084 10.4506 3 10.1665 3C9.88245 3 9.69245 3.34084 9.31245 4.02251L9.21414 4.19887C9.10616 4.39258 9.05217 4.48944 8.96799 4.55334C8.8838 4.61725 8.77896 4.64097 8.56927 4.68841L8.37836 4.73161C7.64046 4.89857 7.27151 4.98205 7.18373 5.26432C7.09595 5.54659 7.34748 5.84072 7.85053 6.42898L7.98068 6.58117C8.12363 6.74833 8.19511 6.83191 8.22726 6.93532C8.25942 7.03872 8.24861 7.15023 8.227 7.37327L8.20732 7.57632C8.13127 8.36118 8.09324 8.75361 8.32305 8.92807C8.55286 9.10252 8.89831 8.94346 9.58921 8.62535L9.76795 8.54305C9.96428 8.45265 10.0624 8.40746 10.1665 8.40746C10.2706 8.40746 10.3687 8.45265 10.5651 8.54305L10.7438 8.62535C11.4347 8.94346 11.7802 9.10252 12.01 8.92807C12.2398 8.75361 12.2017 8.36118 12.1257 7.57632L12.106 7.37327C12.0844 7.15023 12.0736 7.03872 12.1057 6.93532C12.1379 6.83191 12.2094 6.74833 12.3523 6.58117L12.4825 6.42898C12.9855 5.84072 13.2371 5.54659 13.1493 5.26432C13.0615 4.98205 12.6925 4.89857 11.9546 4.73161L11.7637 4.68841C11.554 4.64097 11.4492 4.61725 11.365 4.55334C11.2808 4.48944 11.2268 4.39258 11.1189 4.19887Z" fill="currentColor"/>
</svg>
