<svg width="1em" height="1em" viewBox="0 0 24 25" fill="none" xmlns="http://www.w3.org/2000/svg">
  <path fill-rule="evenodd" clip-rule="evenodd"
    d="M4.12492 10.7304V8.33333C4.12492 3.98409 7.65068 0.458328 11.9999 0.458328C16.3492 0.458328 19.8749 3.98409 19.8749 8.33333V10.7304C21.1755 10.8275 22.0224 11.0727 22.6415 11.6918C23.6666 12.7169 23.6666 14.3668 23.6666 17.6667C23.6666 20.9665 23.6666 22.6164 22.6415 23.6415C21.6163 24.6667 19.9664 24.6667 16.6666 24.6667H7.33325C4.03342 24.6667 2.3835 24.6667 1.35838 23.6415C0.333252 22.6164 0.333252 20.9665 0.333252 17.6667C0.333252 14.3668 0.333252 12.7169 1.35838 11.6918C1.97745 11.0727 2.82437 10.8275 4.12492 10.7304ZM5.87492 8.33333C5.87492 4.95058 8.61717 2.20833 11.9999 2.20833C15.3827 2.20833 18.1249 4.95058 18.1249 8.33333V10.6708C17.6781 10.6667 17.1933 10.6667 16.6666 10.6667H7.33325C6.80649 10.6667 6.32176 10.6667 5.87492 10.6708V8.33333ZM14.3333 17.6667C14.3333 18.9553 13.2886 20 11.9999 20C10.7113 20 9.66658 18.9553 9.66658 17.6667C9.66658 16.378 10.7113 15.3333 11.9999 15.3333C13.2886 15.3333 14.3333 16.378 14.3333 17.6667Z"
    fill="currentColor" />
</svg>