<svg width="48" height="48" viewBox="0 0 96 96" fill="none" xmlns="http://www.w3.org/2000/svg">
  <g clip-path="url(#clip0_4309_348)">
    <rect width="96" height="96" fill="none" />
    <circle cx="47.379" cy="50.982" r="38.1007" fill="url(#paint0_linear_4309_348)" />
    <circle cx="47.379" cy="50.982" r="38.1007" fill="url(#paint1_linear_4309_348)" />
    <path
      d="M37.3589 37.6374C37.3589 35.7772 39.3849 34.6258 40.9836 35.5763L61.4719 47.7712C63.0344 48.7007 63.0344 50.9627 61.4719 51.8922L40.9836 64.0883C39.3849 65.04 37.3589 63.8874 37.3589 62.0272V37.6374Z"
      fill="white" />
    <path
      d="M9.28289 28.6593C9.28289 28.6593 18.9429 29.4909 18.9429 9.64996C18.9429 9.64996 18.8378 28.705 28.1871 28.705C28.1871 28.705 18.7327 29.957 18.7327 40.403C18.7327 40.403 18.7327 28.6638 9.27832 28.6638L9.28289 28.6593Z"
      fill="white" stroke="#AA44F2" stroke-width="1.5" stroke-miterlimit="10" stroke-linecap="round"
      stroke-linejoin="round" />
    <path
      d="M66.5754 72.5774C66.5754 72.5774 76.2354 73.409 76.2354 53.568C76.2354 53.568 76.1303 72.6231 85.4796 72.6231C85.4796 72.6231 76.0252 73.8751 76.0252 84.3211C76.0252 84.3211 76.0252 72.5819 66.5708 72.5819L66.5754 72.5774Z"
      fill="white" stroke="#AA44F2" stroke-width="1.5" stroke-miterlimit="10" stroke-linecap="round"
      stroke-linejoin="round" />
    <path
      d="M78.6857 18.2019C80.1549 18.2019 81.346 17.0108 81.346 15.5416C81.346 14.0723 80.1549 12.8813 78.6857 12.8813C77.2164 12.8813 76.0254 14.0723 76.0254 15.5416C76.0254 17.0108 77.2164 18.2019 78.6857 18.2019Z"
      stroke="#AA44F2" stroke-width="1.5" stroke-linecap="round" stroke-linejoin="round" />
    <path
      d="M11.1856 76.7858C12.239 76.7858 13.0929 75.9319 13.0929 74.8785C13.0929 73.8252 12.239 72.9713 11.1856 72.9713C10.1323 72.9713 9.27832 73.8252 9.27832 74.8785C9.27832 75.9319 10.1323 76.7858 11.1856 76.7858Z"
      fill="#AA44F2" />
  </g>
  <defs>
    <linearGradient id="paint0_linear_4309_348" x1="47.379" y1="12.8813" x2="47.379" y2="89.0827"
      gradientUnits="userSpaceOnUse">
      <stop stop-color="#FB48FF" />
      <stop offset="1" stop-color="#EC5E80" />
    </linearGradient>
    <linearGradient id="paint1_linear_4309_348" x1="9.01913" y1="12.8813" x2="110.396" y2="39.3983"
      gradientUnits="userSpaceOnUse">
      <stop stop-color="#FB48FF" />
      <stop offset="1" stop-color="#EC5E80" />
    </linearGradient>
    <clipPath id="clip0_4309_348">
      <rect width="96" height="96" fill="white" />
    </clipPath>
  </defs>
</svg>