<svg width="1em" height="1em" viewBox="0 0 20 23" fill="none" xmlns="http://www.w3.org/2000/svg">
  <path
    d="M13.5647 6.44428L17.5401 5.37907C17.8019 5.30892 17.9329 5.27384 18.0359 5.22302C18.4591 5.01431 18.7149 4.57122 18.6841 4.10036C18.6766 3.9857 18.6415 3.8548 18.5713 3.59298C18.3609 2.80754 18.2556 2.41482 18.1032 2.10565C17.4771 0.836024 16.1478 0.0685718 14.7352 0.161158C14.5915 0.17058 14.4392 0.194443 14.2533 0.234391C14.2755 0.330404 14.2818 0.431833 14.2695 0.535331L13.5647 6.44428Z"
    fill="currentColor" />
  <path
    d="M6.92529 2.1842L12.4882 0.693627L11.7877 6.56656C11.7734 6.68654 11.7841 6.80373 11.8157 6.91293L6.23977 8.40699L6.94452 2.49804C6.95742 2.38989 6.95001 2.28401 6.92529 2.1842Z"
    fill="currentColor" />
  <path fill-rule="evenodd" clip-rule="evenodd"
    d="M14.9167 9.83331H0.916667V15.6666C0.916667 18.9665 0.916667 20.6164 1.94179 21.6415C2.96692 22.6666 4.61684 22.6666 7.91667 22.6666H12.5833C15.8832 22.6666 17.5331 22.6666 18.5582 21.6415C19.5833 20.6164 19.5833 18.9665 19.5833 15.6666V14.5C19.5833 12.3001 19.5833 11.2001 18.8999 10.5167C18.2165 9.83331 17.1166 9.83331 14.9167 9.83331ZM11.1931 14.7607C12.1199 15.4251 12.5833 15.7574 12.5833 16.25C12.5833 16.7426 12.1199 17.0748 11.1931 17.7393C10.2536 18.4128 9.7839 18.7495 9.43361 18.5023C9.08333 18.255 9.08333 17.5867 9.08333 16.25C9.08333 14.9133 9.08333 14.2449 9.43361 13.9977C9.7839 13.7504 10.2536 14.0872 11.1931 14.7607Z"
    fill="currentColor" />
  <path
    d="M4.46279 8.52927C4.44848 8.64925 4.45916 8.76644 4.49074 8.87564L0.918163 9.83291C0.353738 7.72645 0.0715255 6.67322 0.314252 5.76735C0.473264 5.17391 0.785687 4.63278 1.22012 4.19835C1.88326 3.53521 2.93649 3.25299 5.04295 2.68857L5.16324 2.65634L4.46279 8.52927Z"
    fill="currentColor" />
</svg>