<svg width="1em" height="1em" viewBox="0 0 21 20" fill="none" xmlns="http://www.w3.org/2000/svg">
    <path fill-rule="evenodd" clip-rule="evenodd" d="M1.96447 1.46447C0.5 2.92893 0.5 5.28595 0.5 10C0.5 14.714 0.5 17.0711 1.96447 18.5355C3.42893 20 5.78595 20 10.5 20C15.214 20 17.5711 20 19.0355 18.5355C20.5 17.0711 20.5 14.714 20.5 10C20.5 5.28595 20.5 2.92893 19.0355 1.46447C17.5711 0 15.214 0 10.5 0C5.78595 0 3.42893 0 1.96447 1.46447ZM9.0431 5.51724C9.32877 5.2173 9.31719 4.74256 9.01724 4.4569C8.71729 4.17123 8.24256 4.18281 7.9569 4.48276L5.64286 6.9125L5.0431 6.28276C4.75744 5.98281 4.28271 5.97123 3.98276 6.2569C3.68281 6.54256 3.67123 7.01729 3.9569 7.31724L5.09976 8.51724C5.24131 8.66588 5.4376 8.75 5.64286 8.75C5.84812 8.75 6.0444 8.66588 6.18596 8.51724L9.0431 5.51724ZM11.5 6.25C11.0858 6.25 10.75 6.58579 10.75 7C10.75 7.41422 11.0858 7.75 11.5 7.75H16.5C16.9142 7.75 17.25 7.41422 17.25 7C17.25 6.58579 16.9142 6.25 16.5 6.25H11.5ZM9.0431 12.5172C9.32877 12.2173 9.31719 11.7426 9.01724 11.4569C8.71729 11.1712 8.24256 11.1828 7.9569 11.4828L5.64286 13.9125L5.0431 13.2828C4.75744 12.9828 4.28271 12.9712 3.98276 13.2569C3.68281 13.5426 3.67123 14.0173 3.9569 14.3172L5.09976 15.5172C5.24131 15.6659 5.4376 15.75 5.64286 15.75C5.84812 15.75 6.0444 15.6659 6.18596 15.5172L9.0431 12.5172ZM11.5 13.25C11.0858 13.25 10.75 13.5858 10.75 14C10.75 14.4142 11.0858 14.75 11.5 14.75H16.5C16.9142 14.75 17.25 14.4142 17.25 14C17.25 13.5858 16.9142 13.25 16.5 13.25H11.5Z" fill="currentColor"/>
</svg>
