<svg width="1em" height="1em" viewBox="0 0 24 19" fill="none" xmlns="http://www.w3.org/2000/svg">
  <path
    d="M22.1815 4.55359C22.8584 5.22239 23.1495 6.06448 23.2856 7.06461C23.4166 8.02791 23.4166 9.25272 23.4166 10.7723V10.8942C23.4166 12.4138 23.4166 13.6386 23.2856 14.6019C23.1495 15.602 22.8584 16.4441 22.1815 17.1129C21.5047 17.7817 20.6525 18.0694 19.6403 18.2038C18.6654 18.3334 17.4259 18.3333 15.8881 18.3333H10.1423C8.60443 18.3333 7.3649 18.3334 6.39001 18.2038C5.37786 18.0694 4.52565 17.7817 3.84881 17.1129C3.43818 16.7072 3.1695 16.2376 2.99129 15.7078C4.008 15.8336 5.26581 15.8335 6.71909 15.8334H12.5635C14.0588 15.8335 15.3471 15.8336 16.3788 15.6965C17.4845 15.5496 18.5444 15.2184 19.404 14.369C20.2637 13.5195 20.5989 12.4723 20.7476 11.3797C20.8863 10.3603 20.8862 9.08725 20.8861 7.60977V7.39033C20.8862 5.95395 20.8863 4.7108 20.7588 3.70605C21.2953 3.88213 21.7707 4.14768 22.1815 4.55359Z"
    fill="currentColor" />
  <path
    d="M9.64132 5.55557C8.55451 5.55557 7.67348 6.42614 7.67348 7.50004C7.67348 8.57393 8.55451 9.4445 9.64132 9.4445C10.7281 9.4445 11.6092 8.57393 11.6092 7.50004C11.6092 6.42614 10.7281 5.55557 9.64132 5.55557Z"
    fill="currentColor" />
  <path fill-rule="evenodd" clip-rule="evenodd"
    d="M1.07131 1.80963C0.083252 2.78595 0.083252 4.35731 0.083252 7.50004C0.083252 10.6428 0.083252 12.2141 1.07131 13.1904C2.05936 14.1668 3.64962 14.1668 6.83012 14.1668H12.4525C15.633 14.1668 17.2233 14.1668 18.2113 13.1904C19.1994 12.2141 19.1994 10.6428 19.1994 7.50004C19.1994 4.35731 19.1994 2.78595 18.2113 1.80963C17.2233 0.833313 15.633 0.833313 12.4525 0.833313H6.83012C3.64962 0.833313 2.05936 0.833313 1.07131 1.80963ZM5.98676 7.50004C5.98676 5.50566 7.62296 3.88889 9.64132 3.88889C11.6597 3.88889 13.2959 5.50566 13.2959 7.50004C13.2959 9.49441 11.6597 11.1112 9.64132 11.1112C7.62296 11.1112 5.98676 9.49441 5.98676 7.50004ZM15.8259 10.5556C15.3602 10.5556 14.9826 10.1825 14.9826 9.72228V5.27779C14.9826 4.81755 15.3602 4.44445 15.8259 4.44445C16.2917 4.44445 16.6693 4.81755 16.6693 5.27779V9.72228C16.6693 10.1825 16.2917 10.5556 15.8259 10.5556ZM2.61333 9.72228C2.61333 10.1825 2.99091 10.5556 3.45669 10.5556C3.92246 10.5556 4.30005 10.1825 4.30005 9.72228V5.27779C4.30005 4.81755 3.92246 4.44445 3.45669 4.44445C2.99091 4.44445 2.61333 4.81755 2.61333 5.27779L2.61333 9.72228Z"
    fill="currentColor" />
</svg>