<svg width="1em" height="1em" viewBox="0 0 28 28" fill="none" xmlns="http://www.w3.org/2000/svg">
  <path fill-rule="evenodd" clip-rule="evenodd"
    d="M2.33325 14V9.33333C2.33325 6.0335 2.33325 4.38359 3.35838 3.35846C4.3835 2.33333 6.03342 2.33333 9.33325 2.33333H18.6666C21.9664 2.33333 23.6163 2.33333 24.6415 3.35846C25.6666 4.38358 25.6666 6.0335 25.6666 9.33333V14C25.6666 17.2998 25.6666 18.9497 24.6415 19.9749C24.0857 20.5306 23.3464 20.7851 22.2602 20.9016C22.1738 20.785 22.0921 20.6932 22.0338 20.6291C21.8983 20.4801 21.7265 20.3107 21.5599 20.1465L19.8181 18.4289L19.1749 17.7773C18.7521 15.301 16.5963 13.4167 14 13.4167C11.4036 13.4167 9.24785 15.301 8.82512 17.7773L8.18188 18.4289L6.44015 20.1464C6.27354 20.3106 6.10168 20.4801 5.96616 20.6291C5.90786 20.6932 5.82613 20.785 5.7398 20.9016C4.65348 20.7851 3.91412 20.5306 3.35838 19.9749C2.33325 18.9497 2.33325 17.2998 2.33325 14ZM10.4999 6.125C10.0167 6.125 9.62492 6.51675 9.62492 7C9.62492 7.48325 10.0167 7.875 10.4999 7.875H17.4999C17.9832 7.875 18.3749 7.48325 18.3749 7C18.3749 6.51675 17.9832 6.125 17.4999 6.125H10.4999ZM7.29159 11.0833C7.29159 10.6001 7.68334 10.2083 8.16659 10.2083H19.8333C20.3165 10.2083 20.7083 10.6001 20.7083 11.0833C20.7083 11.5666 20.3165 11.9583 19.8333 11.9583H8.16659C7.68334 11.9583 7.29159 11.5666 7.29159 11.0833Z"
    fill="url(#paint0_linear_269_3052)" />
  <path
    d="M17.4999 18.6667C17.4999 20.5997 15.9329 22.1667 13.9999 22.1667C12.0669 22.1667 10.4999 20.5997 10.4999 18.6667C10.4999 16.7337 12.0669 15.1667 13.9999 15.1667C15.9329 15.1667 17.4999 16.7337 17.4999 18.6667Z"
    fill="url(#paint1_linear_269_3052)" />
  <path
    d="M10.5012 18.5703C10.5004 18.6023 10.4999 18.6344 10.4999 18.6667C10.4999 20.5997 12.0669 22.1667 13.9999 22.1667C15.9329 22.1667 17.4999 20.5997 17.4999 18.6667C17.4999 18.6344 17.4995 18.6023 17.4986 18.5703C17.4476 16.6819 15.9007 15.1667 13.9999 15.1667C12.1877 15.1667 10.6972 16.5439 10.518 18.3088C10.5092 18.3951 10.5036 18.4823 10.5012 18.5703Z"
    fill="url(#paint2_linear_269_3052)" />
  <path
    d="M8.9549 20.1243L7.69436 21.3673C7.31628 21.7401 7.12724 21.9265 7.06182 22.0844C6.91275 22.4441 7.04032 22.8432 7.36489 23.0324C7.50732 23.1154 7.76423 23.1413 8.27804 23.1931C8.56815 23.2223 8.7132 23.2369 8.83469 23.2813C9.10668 23.3805 9.31826 23.5892 9.41894 23.8574C9.46392 23.9772 9.47874 24.1202 9.50837 24.4063C9.56086 24.913 9.5871 25.1663 9.67131 25.3068C9.86321 25.6268 10.2679 25.7526 10.6327 25.6056C10.7928 25.5411 10.9818 25.3547 11.3599 24.9819L12.6204 23.7335C10.8558 23.2542 9.46062 21.8778 8.9549 20.1243Z"
    fill="url(#paint3_linear_269_3052)" />
  <path
    d="M15.3795 23.7335L16.6399 24.9819C17.018 25.3547 17.2071 25.5411 17.3672 25.6056C17.732 25.7526 18.1366 25.6268 18.3285 25.3068C18.4127 25.1663 18.439 24.913 18.4915 24.4063C18.5211 24.1202 18.5359 23.9772 18.5809 23.8574C18.6816 23.5892 18.8932 23.3805 19.1651 23.2813C19.2866 23.2369 19.4317 23.2223 19.7218 23.1931C20.2356 23.1413 20.4925 23.1154 20.635 23.0324C20.9595 22.8432 21.0871 22.4441 20.938 22.0844C20.8726 21.9265 20.6836 21.7401 20.3055 21.3673L19.0449 20.1243C18.5392 21.8778 17.144 23.2542 15.3795 23.7335Z"
    fill="url(#paint4_linear_269_3052)" />
  <defs>
    <linearGradient id="paint0_linear_269_3052" x1="3.36996" y1="3.92502" x2="29.7349" y2="10.2108"
      gradientUnits="userSpaceOnUse">
      <stop offset="0.0104167" stop-color="#4E4BE4" />
      <stop offset="1" stop-color="#AA44F2" />
    </linearGradient>
    <linearGradient id="paint1_linear_269_3052" x1="3.36996" y1="3.92502" x2="29.7349" y2="10.2108"
      gradientUnits="userSpaceOnUse">
      <stop offset="0.0104167" stop-color="#4E4BE4" />
      <stop offset="1" stop-color="#AA44F2" />
    </linearGradient>
    <linearGradient id="paint2_linear_269_3052" x1="3.36996" y1="3.92502" x2="29.7349" y2="10.2108"
      gradientUnits="userSpaceOnUse">
      <stop offset="0.0104167" stop-color="#4E4BE4" />
      <stop offset="1" stop-color="#AA44F2" />
    </linearGradient>
    <linearGradient id="paint3_linear_269_3052" x1="3.36996" y1="3.92502" x2="29.7349" y2="10.2108"
      gradientUnits="userSpaceOnUse">
      <stop offset="0.0104167" stop-color="#4E4BE4" />
      <stop offset="1" stop-color="#AA44F2" />
    </linearGradient>
    <linearGradient id="paint4_linear_269_3052" x1="3.36996" y1="3.92502" x2="29.7349" y2="10.2108"
      gradientUnits="userSpaceOnUse">
      <stop offset="0.0104167" stop-color="#4E4BE4" />
      <stop offset="1" stop-color="#AA44F2" />
    </linearGradient>
  </defs>
</svg>