<svg width="1em" height="1em" viewBox="0 0 28 28" fill="none" xmlns="http://www.w3.org/2000/svg">
  <path
    d="M19.0687 10.4186L19.4706 7.10519C19.5642 6.33326 19.611 5.94729 19.5302 5.62645C19.4225 5.19866 19.1605 4.83425 18.8019 4.61336C18.533 4.4477 18.1726 4.39756 17.452 4.29728C16.7313 4.19699 16.371 4.14685 16.0714 4.23341C15.672 4.34882 15.3318 4.62944 15.1256 5.01354C14.9709 5.30161 14.8739 6.10176 14.7803 6.87369L7.62683 5.87827C7.72045 5.10633 7.81749 4.30619 7.73668 3.98535C7.62894 3.55756 7.36695 3.19315 7.00836 2.97226C6.73942 2.8066 6.37909 2.75646 5.65842 2.65618C4.93775 2.55589 4.57742 2.50575 4.27788 2.59231C3.87851 2.70772 3.53829 2.98834 3.33207 3.37244C3.17741 3.66051 3.1306 4.04648 3.03698 4.81841L2.63511 8.13184C2.54149 8.90377 2.49468 9.28974 2.57549 9.61058C2.68323 10.0384 2.94522 10.4028 3.30381 10.6237C3.57275 10.7893 3.93309 10.8395 4.65375 10.9398C5.37442 11.04 5.73476 11.0902 6.03429 11.0036C6.43367 10.8882 6.77388 10.6076 6.9801 10.2235C7.13476 9.93542 7.2318 9.13527 7.32543 8.36334L14.4789 9.35876C14.3853 10.1307 14.2882 10.9308 14.369 11.2517C14.4768 11.6795 14.7388 12.0439 15.0973 12.2648C15.3663 12.4304 15.7266 12.4806 16.4473 12.5809C17.168 12.6811 17.5283 12.7313 17.8278 12.6447C18.2272 12.5293 18.5674 12.2487 18.7736 11.8646C18.9283 11.5765 18.9751 11.1906 19.0687 10.4186Z"
    fill="url(#paint0_linear_269_3047)" />
  <path
    d="M9.05451 23.2459L8.24716 20.0185C8.05907 19.2666 7.96502 18.8906 8.00551 18.5612C8.05951 18.1219 8.27421 17.7235 8.60238 17.4538C8.84851 17.2515 9.19949 17.1508 9.90146 16.9493C10.6034 16.7478 10.9544 16.6471 11.262 16.6905C11.6721 16.7483 12.044 16.9783 12.2958 17.3298C12.4847 17.5934 12.6796 18.3728 12.8677 19.1247L19.8355 17.1249C19.6474 16.373 19.4524 15.5936 19.4929 15.2642C19.5469 14.8249 19.7616 14.4265 20.0898 14.1568C20.3359 13.9545 20.6869 13.8538 21.3889 13.6523C22.0908 13.4508 22.4418 13.3501 22.7494 13.3935C23.1595 13.4513 23.5314 13.6813 23.7832 14.0328C23.9721 14.2964 24.0661 14.6724 24.2542 15.4243L25.0616 18.6517C25.2496 19.4036 25.3437 19.7796 25.3032 20.109C25.2492 20.5483 25.0345 20.9466 24.7063 21.2164C24.4602 21.4187 24.1092 21.5194 23.4073 21.7209C22.7053 21.9223 22.3543 22.0231 22.0467 21.9797C21.6366 21.9219 21.2647 21.6919 21.0129 21.3404C20.8241 21.0767 20.6291 20.2974 20.441 19.5455L13.4732 21.5453C13.6613 22.2972 13.8563 23.0766 13.8158 23.406C13.7618 23.8453 13.5471 24.2436 13.2189 24.5134C12.9728 24.7157 12.6218 24.8164 11.9198 25.0179C11.2179 25.2193 10.8669 25.3201 10.5593 25.2767C10.1492 25.2189 9.77733 24.9889 9.52551 24.6374C9.33665 24.3737 9.2426 23.9978 9.05451 23.2459Z"
    fill="url(#paint1_linear_269_3047)" />
  <defs>
    <linearGradient id="paint0_linear_269_3047" x1="4" y1="3" x2="19.2074" y2="12.674"
      gradientUnits="userSpaceOnUse">
      <stop offset="0.0104167" stop-color="#4E4BE4" />
      <stop offset="1" stop-color="#AA44F2" />
    </linearGradient>
    <linearGradient id="paint1_linear_269_3047" x1="23.0752" y1="13.7582" x2="9.13183" y2="25.425"
      gradientUnits="userSpaceOnUse">
      <stop offset="0.0104167" stop-color="#4E4BE4" />
      <stop offset="1" stop-color="#AA44F2" />
    </linearGradient>
  </defs>
</svg>