<svg width="239" height="86" viewBox="0 0 239 86" fill="none" xmlns="http://www.w3.org/2000/svg">
<g opacity="0.5">
<g filter="url(#filter0_b_291_1375)">
<path d="M238 28C238 28 166.229 46 119.5 46C72.7708 46 0.999756 28 0.999756 28" stroke="url(#paint0_linear_291_1375)" stroke-width="2"/>
</g>
<g filter="url(#filter1_b_291_1375)">
<path d="M238 8C238 8 166.229 46 119.5 46C72.7708 46 0.999756 8 0.999756 8" stroke="url(#paint1_linear_291_1375)" stroke-width="2"/>
</g>
<g filter="url(#filter2_b_291_1375)">
<path d="M238 57C238 57 166.229 39 119.5 39C72.7708 39 0.999756 57 0.999756 57" stroke="url(#paint2_linear_291_1375)" stroke-width="2"/>
</g>
<g filter="url(#filter3_b_291_1375)">
<path d="M238 77C238 77 166.229 39 119.5 39C72.7708 39 0.999756 77 0.999756 77" stroke="url(#paint3_linear_291_1375)" stroke-width="2"/>
</g>
</g>
<g filter="url(#filter4_b_291_1375)">
<circle cx="119" cy="43" r="41" fill="#130E26" fill-opacity="0.5"/>
<circle cx="119" cy="43" r="42" stroke="url(#paint4_linear_291_1375)" stroke-opacity="0.15" stroke-width="2"/>
</g>
<path d="M145.008 30.4807C150.824 45.2507 143.566 61.9364 128.796 67.7526C114.026 73.5687 97.3384 66.3117 91.5239 51.5408C85.7077 36.7708 92.9647 20.0835 107.736 14.2689C122.506 8.45274 139.191 15.7107 145.008 30.4807Z" fill="#A733DD"/>
<g filter="url(#filter5_i_291_1375)">
<path d="M146.201 31.2964C151.939 45.8669 144.778 62.33 130.207 68.0678C115.634 73.805 99.1717 66.6454 93.4346 52.0723C87.6968 37.5017 94.858 21.0386 109.429 15.3008C124.002 9.56365 140.462 16.7242 146.201 31.2964Z" fill="url(#paint5_radial_291_1375)"/>
</g>
<g clip-path="url(#clip0_291_1375)">
<path opacity="0.25" fill-rule="evenodd" clip-rule="evenodd" d="M103.14 40.3199C103.14 41.7924 104.338 42.9909 105.811 42.9909C107.283 42.9909 108.482 41.7932 108.482 40.3199C108.482 39.8081 108.337 39.3298 108.086 38.923L112.982 34.4859C113.431 34.8271 113.989 35.0306 114.596 35.0306C115.388 35.0306 116.101 34.6828 116.591 34.1331L120.878 36.7098C120.767 37.0073 120.71 37.3224 120.71 37.64C120.71 39.1124 121.908 40.3109 123.381 40.3109C124.854 40.3109 126.052 39.1133 126.052 37.64C126.052 37.1109 125.897 36.6179 125.631 36.2028L130.591 31.5459C131.048 31.8816 131.6 32.0624 132.167 32.0619C133.639 32.0619 134.838 30.8642 134.838 29.3909C134.838 27.9185 133.639 26.72 132.167 26.72C130.694 26.72 129.496 27.9176 129.496 29.3909C129.496 29.92 129.651 30.413 129.917 30.8281L124.957 35.485C124.5 35.1494 123.948 34.9686 123.381 34.969C122.589 34.969 121.876 35.3169 121.386 35.8665L117.099 33.2899C117.208 33.0003 117.267 32.6869 117.267 32.3596C117.267 30.8872 116.068 29.6887 114.596 29.6887C113.123 29.6887 111.925 30.8864 111.925 32.3596C111.924 32.8531 112.061 33.3369 112.321 33.7566L107.425 38.1929C106.976 37.8516 106.416 37.6482 105.811 37.6482C104.338 37.649 103.14 38.8475 103.14 40.3199ZM108.556 45.9817C108.827 45.9817 109.048 46.2024 109.048 46.4739V54.9674H111.358V40.3503C111.358 40.0788 111.579 39.8581 111.85 39.8581H117.34C117.613 39.8581 117.833 40.0788 117.833 40.3503V54.9674H120.143V44.223C120.143 43.9515 120.363 43.7308 120.635 43.7308H126.125C126.397 43.7308 126.617 43.9515 126.617 44.223V54.9674H128.927V37.2585C128.927 36.9862 129.148 36.7664 129.42 36.7664H134.91C135.181 36.7664 135.402 36.987 135.402 37.2585V54.9666H138.264C138.537 54.9666 138.756 55.1873 138.756 55.4588C138.756 55.7303 138.537 55.951 138.264 55.951H99.7095C99.4379 55.951 99.2173 55.7303 99.2173 55.4588C99.2173 55.1873 99.4379 54.9666 99.7095 54.9666H102.572V46.4739C102.572 46.2024 102.793 45.9817 103.065 45.9817H108.556Z" fill="white"/>
<g filter="url(#filter6_d_291_1375)">
<g filter="url(#filter7_b_291_1375)">
<path d="M125.599 42.6581L121.34 38.3983C124.526 34.1406 123.658 28.1061 119.4 24.9201C115.141 21.734 109.107 22.6027 105.92 26.8604C102.734 31.1182 103.603 37.1526 107.861 40.3387C111.281 42.898 115.979 42.898 119.4 40.3387L123.66 44.5985C124.195 45.1338 125.063 45.1338 125.598 44.5985C126.134 44.0632 126.134 43.1953 125.598 42.66L125.599 42.6581Z" fill="black" fill-opacity="0.2"/>
<path d="M120.339 37.6493L119.691 38.5162L120.456 39.282L124.337 43.1639L124.337 43.1659L124.715 43.5439C124.762 43.591 124.762 43.6674 124.715 43.7146L124.715 43.7146C124.667 43.7618 124.591 43.7618 124.544 43.7146L120.283 39.4547L119.518 38.6891L118.651 39.3378C115.674 41.5649 111.586 41.5649 108.61 39.3378L107.896 40.2909L108.61 39.3378C104.904 36.5653 104.148 31.3143 106.921 27.6094C109.694 23.9044 114.945 23.1484 118.651 25.9209C122.356 28.6934 123.112 33.9444 120.339 37.6493Z" stroke="#FAFAFA" stroke-width="2.5"/>
</g>
<circle cx="113.5" cy="32.5" r="4.5" fill="white"/>
</g>
</g>
<defs>
<filter id="filter0_b_291_1375" x="-39.2427" y="-12.9698" width="317.485" height="99.9698" filterUnits="userSpaceOnUse" color-interpolation-filters="sRGB">
<feFlood flood-opacity="0" result="BackgroundImageFix"/>
<feGaussianBlur in="BackgroundImageFix" stdDeviation="20"/>
<feComposite in2="SourceAlpha" operator="in" result="effect1_backgroundBlur_291_1375"/>
<feBlend mode="normal" in="SourceGraphic" in2="effect1_backgroundBlur_291_1375" result="shape"/>
</filter>
<filter id="filter1_b_291_1375" x="-39.467" y="-32.8835" width="317.934" height="119.883" filterUnits="userSpaceOnUse" color-interpolation-filters="sRGB">
<feFlood flood-opacity="0" result="BackgroundImageFix"/>
<feGaussianBlur in="BackgroundImageFix" stdDeviation="20"/>
<feComposite in2="SourceAlpha" operator="in" result="effect1_backgroundBlur_291_1375"/>
<feBlend mode="normal" in="SourceGraphic" in2="effect1_backgroundBlur_291_1375" result="shape"/>
</filter>
<filter id="filter2_b_291_1375" x="-39.2427" y="-2" width="317.485" height="99.9698" filterUnits="userSpaceOnUse" color-interpolation-filters="sRGB">
<feFlood flood-opacity="0" result="BackgroundImageFix"/>
<feGaussianBlur in="BackgroundImageFix" stdDeviation="20"/>
<feComposite in2="SourceAlpha" operator="in" result="effect1_backgroundBlur_291_1375"/>
<feBlend mode="normal" in="SourceGraphic" in2="effect1_backgroundBlur_291_1375" result="shape"/>
</filter>
<filter id="filter3_b_291_1375" x="-39.467" y="-2" width="317.934" height="119.883" filterUnits="userSpaceOnUse" color-interpolation-filters="sRGB">
<feFlood flood-opacity="0" result="BackgroundImageFix"/>
<feGaussianBlur in="BackgroundImageFix" stdDeviation="20"/>
<feComposite in2="SourceAlpha" operator="in" result="effect1_backgroundBlur_291_1375"/>
<feBlend mode="normal" in="SourceGraphic" in2="effect1_backgroundBlur_291_1375" result="shape"/>
</filter>
<filter id="filter4_b_291_1375" x="35.9998" y="-40" width="166" height="166" filterUnits="userSpaceOnUse" color-interpolation-filters="sRGB">
<feFlood flood-opacity="0" result="BackgroundImageFix"/>
<feGaussianBlur in="BackgroundImageFix" stdDeviation="20"/>
<feComposite in2="SourceAlpha" operator="in" result="effect1_backgroundBlur_291_1375"/>
<feBlend mode="normal" in="SourceGraphic" in2="effect1_backgroundBlur_291_1375" result="shape"/>
</filter>
<filter id="filter5_i_291_1375" x="91.4551" y="13.3217" width="56.7253" height="56.7253" filterUnits="userSpaceOnUse" color-interpolation-filters="sRGB">
<feFlood flood-opacity="0" result="BackgroundImageFix"/>
<feBlend mode="normal" in="SourceGraphic" in2="BackgroundImageFix" result="shape"/>
<feColorMatrix in="SourceAlpha" type="matrix" values="0 0 0 0 0 0 0 0 0 0 0 0 0 0 0 0 0 0 127 0" result="hardAlpha"/>
<feOffset dy="2"/>
<feComposite in2="hardAlpha" operator="arithmetic" k2="-1" k3="1"/>
<feColorMatrix type="matrix" values="0 0 0 0 1 0 0 0 0 1 0 0 0 0 1 0 0 0 0.25 0"/>
<feBlend mode="normal" in2="shape" result="effect1_innerShadow_291_1375"/>
</filter>
<filter id="filter6_d_291_1375" x="96" y="15" width="38" height="38" filterUnits="userSpaceOnUse" color-interpolation-filters="sRGB">
<feFlood flood-opacity="0" result="BackgroundImageFix"/>
<feColorMatrix in="SourceAlpha" type="matrix" values="0 0 0 0 0 0 0 0 0 0 0 0 0 0 0 0 0 0 127 0" result="hardAlpha"/>
<feOffset/>
<feGaussianBlur stdDeviation="4"/>
<feComposite in2="hardAlpha" operator="out"/>
<feColorMatrix type="matrix" values="0 0 0 0 0.654902 0 0 0 0 0.2 0 0 0 0 0.866667 0 0 0 1 0"/>
<feBlend mode="normal" in2="BackgroundImageFix" result="effect1_dropShadow_291_1375"/>
<feBlend mode="normal" in="SourceGraphic" in2="effect1_dropShadow_291_1375" result="shape"/>
</filter>
<filter id="filter7_b_291_1375" x="102" y="21" width="26" height="26" filterUnits="userSpaceOnUse" color-interpolation-filters="sRGB">
<feFlood flood-opacity="0" result="BackgroundImageFix"/>
<feGaussianBlur in="BackgroundImageFix" stdDeviation="1"/>
<feComposite in2="SourceAlpha" operator="in" result="effect1_backgroundBlur_291_1375"/>
<feBlend mode="normal" in="SourceGraphic" in2="effect1_backgroundBlur_291_1375" result="shape"/>
</filter>
<linearGradient id="paint0_linear_291_1375" x1="0.999756" y1="37" x2="238" y2="36.9928" gradientUnits="userSpaceOnUse">
<stop offset="0.1" stop-color="#A733DD" stop-opacity="0"/>
<stop offset="0.5" stop-color="#A733DD"/>
<stop offset="0.9" stop-color="#A733DD" stop-opacity="0"/>
</linearGradient>
<linearGradient id="paint1_linear_291_1375" x1="0.999756" y1="27" x2="238" y2="26.9966" gradientUnits="userSpaceOnUse">
<stop offset="0.1" stop-color="#A733DD" stop-opacity="0"/>
<stop offset="0.5" stop-color="#A733DD"/>
<stop offset="0.9" stop-color="#A733DD" stop-opacity="0"/>
</linearGradient>
<linearGradient id="paint2_linear_291_1375" x1="0.999756" y1="48" x2="238" y2="48.0072" gradientUnits="userSpaceOnUse">
<stop offset="0.1" stop-color="#A733DD" stop-opacity="0"/>
<stop offset="0.5" stop-color="#A733DD"/>
<stop offset="0.9" stop-color="#A733DD" stop-opacity="0"/>
</linearGradient>
<linearGradient id="paint3_linear_291_1375" x1="0.999756" y1="58" x2="238" y2="58.0034" gradientUnits="userSpaceOnUse">
<stop offset="0.1" stop-color="#A733DD" stop-opacity="0"/>
<stop offset="0.5" stop-color="#A733DD"/>
<stop offset="0.9" stop-color="#A733DD" stop-opacity="0"/>
</linearGradient>
<linearGradient id="paint4_linear_291_1375" x1="77.9998" y1="2" x2="157.889" y2="86.0077" gradientUnits="userSpaceOnUse">
<stop stop-color="#A733DD"/>
<stop offset="1" stop-color="#EC69BF"/>
</linearGradient>
<radialGradient id="paint5_radial_291_1375" cx="0" cy="0" r="1" gradientUnits="userSpaceOnUse" gradientTransform="translate(134.126 66.1699) rotate(-120) scale(56.7183 28.5069)">
<stop stop-color="#EC69BF"/>
<stop offset="1" stop-color="#A733DD"/>
</radialGradient>
<clipPath id="clip0_291_1375">
<rect width="42" height="42" fill="white" transform="translate(98 20)"/>
</clipPath>
</defs>
</svg>
